<?xml version="1.0" encoding="utf-8"?>
<!-- Generator: Adobe Illustrator 27.5.0, SVG Export Plug-In . SVG Version: 6.00 Build 0)  -->
<svg version="1.1" id="Capa_1" xmlns="http://www.w3.org/2000/svg" xmlns:xlink="http://www.w3.org/1999/xlink" x="0px" y="0px"
	 viewBox="0 0 2122 2122" style="enable-background:new 0 0 2122 2122;" xml:space="preserve">
<g>
	<path style="fill:#5057A3;" d="M1571.79,680.68c17.275,0,31.28-14.004,31.28-31.28V471.931c0-17.275-14.005-31.28-31.28-31.28
		h-33.223V239.715c0-50.521-40.956-91.477-91.477-91.477h-44.566H654.292h-44.565c-50.521,0-91.477,40.956-91.477,91.477v1641.89
		c0,50.521,40.956,91.477,91.477,91.477h44.565h748.233h44.566c50.521,0,91.477-40.955,91.477-91.477V953.937h33.223
		c17.275,0,31.28-14.004,31.28-31.28V745.189c0-17.276-14.005-31.28-31.28-31.28h-33.223V680.68H1571.79z"/>
	<path style="fill:#6E7ABA;" d="M1447.09,148.238h-44.566H654.292c-50.52,0-91.476,40.955-91.476,91.477v1641.89
		c0,50.521,40.956,91.476,91.476,91.476h748.233h44.566c50.521,0,91.477-40.955,91.477-91.476V953.937V713.908v-33.229V440.651
		V239.715C1538.567,189.193,1497.612,148.238,1447.09,148.238z"/>
	<polygon style="fill:#2CBAD8;" points="1494.002,1808.893 1494.002,256.134 633.182,256.134 602.69,256.134 602.69,1832.348 
		1494.002,1832.348 1494.002,1832.348 1494.002,1808.893 	"/>
	<polygon style="fill:#73CAE6;" points="1494.002,1808.893 1494.002,256.134 633.182,256.134 	"/>
	<polygon style="fill:#0080A6;" points="633.182,1808.893 633.182,256.134 602.69,256.134 602.69,1832.348 1494.002,1832.348 
		1494.002,1832.348 1494.002,1808.893 1494.002,1808.893 	"/>
	<path style="fill:#5057A3;" d="M1571.79,440.651h-33.223v240.028h33.223c17.275,0,31.28-14.004,31.28-31.28V471.931
		C1603.07,454.655,1589.065,440.651,1571.79,440.651z"/>
	<path style="fill:#6E7ABA;" d="M1584.306,645.897V475.434c0-16.188-14.265-29.31-31.86-29.31h-6.841v229.083h6.841
		C1570.041,675.207,1584.306,662.084,1584.306,645.897z"/>
	<path style="fill:#5057A3;" d="M1571.79,713.908h-33.223v240.029h33.223c17.275,0,31.28-14.005,31.28-31.28V745.189
		C1603.07,727.913,1589.065,713.908,1571.79,713.908z"/>
	<path style="fill:#6E7ABA;" d="M1584.306,919.155V748.691c0-16.188-14.265-29.31-31.86-29.31h-6.841v229.083h6.841
		C1570.041,948.464,1584.306,935.341,1584.306,919.155z"/>
	<path style="fill:#5057A3;" d="M948.66,216.26h159.498c9.675,0,17.592-7.916,17.592-17.592c0-9.675-7.917-17.591-17.592-17.591
		H948.66c-9.676,0-17.591,7.916-17.591,17.591C931.068,208.343,938.984,216.26,948.66,216.26z"/>
	<path style="fill:#5057A3;" d="M1160.151,216.26c9.716,0,17.592-7.876,17.592-17.592c0-9.716-7.876-17.591-17.592-17.591
		c-9.716,0-17.591,7.876-17.591,17.591C1142.559,208.383,1150.435,216.26,1160.151,216.26z"/>
	<path style="fill:#5057A3;" d="M1143.341,1851.113H958.042c-17.596,0-31.86,14.265-31.86,31.86v37.138
		c0,17.596,14.264,31.86,31.86,31.86h185.299c17.596,0,31.86-14.264,31.86-31.86v-37.138
		C1175.201,1865.377,1160.937,1851.113,1143.341,1851.113z"/>
</g>
</svg>
